<svg xmlns="http://www.w3.org/2000/svg" width="209" height="42" viewBox="0 0 209 42">
  <g fill="none" fill-rule="evenodd">
    <path fill="#000" fill-rule="nonzero" d="M167.327986,12.8727464 C167.327986,12.8727464 170.598316,12.4289728 172.890109,13.9988219 C173.002795,13.5463622 173.412972,13.2284313 173.88386,13.2285577 L177.94855,13.2285577 C178.513238,13.2287152 178.970969,13.6816939 178.971128,14.24052 L178.971128,27.7090483 C178.971128,34.7309728 173.13194,36.0416898 169.057642,36.0416898 C166.690187,36.0972321 164.359835,35.4524017 162.364837,34.1897275 C161.917418,33.8889928 161.784058,33.2954516 162.060546,32.8354257 C162.487354,32.123803 163.118358,31.0730106 163.597216,30.3170106 C163.739756,30.079618 163.975957,29.9118819 164.24885,29.854259 C164.521744,29.7966361 164.806556,29.8543575 165.034592,30.0135011 C166.243642,30.7477797 167.639266,31.1255024 169.057642,31.1023313 C170.45578,31.1023313 172.76599,30.5864445 172.857278,27.8770483 C171.162207,28.7848009 169.229934,29.1656416 167.312772,28.9698408 C167.22709,28.9611238 167.180645,28.9547842 167.180645,28.9547842 C163.735749,28.5268596 161.045975,25.95852 161.045975,20.9224823 C161.045975,15.929237 163.735749,13.2547087 167.327986,12.8727464 L167.327986,12.8727464 Z M170.347676,23.6770483 L170.347676,23.6770483 C171.289926,23.6650473 172.190726,23.2917641 172.860481,22.6357653 L172.860481,19.2084068 C172.190514,18.5527221 171.289849,18.1794946 170.347676,18.1671238 C168.684485,18.1671238 167.292753,18.9397653 167.292753,20.9224823 C167.292753,22.9044068 168.684485,23.6770483 170.347676,23.6770483 Z M125.668921,20.279803 L125.668921,19.4437653 C125.668921,18.3018408 124.616714,17.4277653 122.613998,17.4277653 C121.326578,17.4544303 120.067098,17.8042743 118.953695,18.4444823 C118.715347,18.5831807 118.430448,18.62059 118.163798,18.5482015 C117.897147,18.4758131 117.671414,18.2997809 117.53794,18.0601426 C117.193611,17.4396521 116.749186,16.6384823 116.432883,16.0512747 C116.181565,15.5978404 116.319119,15.0296771 116.750787,14.7381804 C118.854224,13.471769 121.272194,12.8094158 123.73427,12.8251992 C127.807768,12.8251992 131.78037,14.2365577 131.78037,19.6458408 L131.78037,28.4436521 C131.780421,28.7122668 131.672617,28.9698942 131.480685,29.1598335 C131.288753,29.3497728 131.028423,29.4564573 130.75699,29.4564068 L126.692301,29.4564068 C126.300006,29.4565267 125.942223,29.2345405 125.771419,28.8850483 C124.085217,29.6744404 122.217482,30.0066995 120.35904,29.8478785 C120.251737,29.8415389 120.143634,29.831237 120.033929,29.8185577 L120.000297,29.8145955 C117.210246,29.5975945 115.062257,27.2866117 115.076385,24.5170483 C115.076385,20.9827087 117.529933,19.6688219 119.781688,19.3985955 L119.819324,19.3938408 C120.025921,19.3700672 120.230117,19.355803 120.430308,19.3478785 C122.227226,19.2302771 124.025887,19.5502505 125.668921,20.279803 L125.668921,20.279803 Z M123.258615,25.9284068 L123.258615,25.9284068 C124.151281,25.9918499 125.028668,25.6739618 125.668921,25.0551238 L125.668921,24.1477653 C125.02887,23.5286103 124.151333,23.2106681 123.258615,23.2744823 C122.24004,23.2744823 121.119768,23.6104823 121.119768,24.6176898 C121.119768,25.6256898 122.24004,25.9284068 123.258615,25.9284068 Z M95.2838447,20.3321049 L95.2838447,19.4437653 C95.2838447,18.3018408 94.230837,17.4277653 92.2281206,17.4277653 C90.9409537,17.4544333 89.681733,17.8042817 88.5686187,18.4444823 C88.3303041,18.5833245 88.0453553,18.6208142 87.7786621,18.5484141 C87.5119689,18.4760141 87.2862345,18.2998875 87.1528639,18.0601426 C86.8077336,17.4396521 86.3633083,16.6384823 86.0470056,16.0512747 C85.7956875,15.5978404 85.9332416,15.0296771 86.3649098,14.7381804 C88.468347,13.4717701 90.8863172,12.809417 93.3483926,12.8251992 C97.4226915,12.8251992 101.394492,14.2365577 101.394492,19.6458408 L101.394492,28.4436521 C101.394539,28.7122655 101.286734,28.9698905 101.094803,29.1598289 C100.902872,29.3497673 100.642544,29.456453 100.371113,29.4564068 L96.3064233,29.4564068 C95.8975381,29.4564091 95.5278941,29.2155502 95.3663236,28.8438408 C93.7083018,29.6534568 91.8590085,30.0016157 90.0164041,29.8510483 C89.8850784,29.8431238 89.752952,29.831237 89.619224,29.8153879 L89.5960018,29.8122181 C86.8137408,29.5873789 84.676094,27.2795481 84.6913083,24.5170483 C84.6913083,21.0183691 87.0944079,19.6957653 89.3277451,19.4073125 L89.3285459,19.40652 C89.6596813,19.364237 89.9932208,19.3430613 90.3271014,19.3431238 L90.3295037,19.3431238 C92.037693,19.2685796 93.7384275,19.6080787 95.2838447,20.3321049 L95.2838447,20.3321049 Z M92.8727374,25.9284068 L92.8727374,25.9284068 C93.7656395,25.9918347 94.6432669,25.6739653 95.2838447,25.0551238 L95.2838447,24.1477653 C94.6434692,23.5286061 93.7656923,23.2106826 92.8727374,23.2744823 C91.8541627,23.2744823 90.7338907,23.6104823 90.7338907,24.6176898 C90.7338907,25.6256898 91.8541627,25.9284068 92.8727374,25.9284068 Z M144.987408,13.8324068 L144.987408,8.05859547 C144.987385,7.7901993 145.095113,7.53278931 145.286888,7.34300456 C145.478664,7.15321981 145.738775,7.04661009 146.009986,7.04663321 L150.074676,7.04663321 C150.346027,7.04639977 150.606343,7.15291664 150.798292,7.34272419 C150.990241,7.53253175 151.098079,7.79006193 151.098055,8.05859547 L151.098055,28.4436521 C151.097786,29.0028705 150.639761,29.4561401 150.074676,29.4564068 L146.009986,29.4564068 C145.577625,29.4564345 145.191956,29.1873972 145.046665,28.7844068 C143.562904,29.5894193 141.878862,29.9614756 140.190017,29.8573879 C139.954592,29.8518355 139.721836,29.8359864 139.491749,29.8098408 C139.453312,29.8058785 139.433293,29.8027087 139.433293,29.8027087 C135.89791,29.3708219 133.138469,26.4577653 133.138469,21.3258408 C133.138469,16.4340294 135.780998,13.4060672 139.301167,12.9004823 L144.987408,13.8324068 Z M142.440971,24.5170483 L142.440971,24.5170483 C143.405877,24.5013296 144.32373,24.101724 144.987408,23.4084068 L144.987408,19.2424823 C144.320446,18.5580286 143.401797,18.1700836 142.440971,18.1671238 C141.599211,18.1430487 140.786513,18.4728408 140.204163,19.0748189 C139.621813,19.6767969 139.324277,20.4946588 139.385247,21.3258408 C139.323498,22.1602343 139.619682,22.9817849 140.201181,23.5890661 C140.78268,24.1963472 141.595724,24.5332047 142.440971,24.5170483 Z M139.301167,12.9004823 C139.654953,12.8500476 140.01195,12.8248882 140.369389,12.8251992 L140.449465,12.8251992 C142.025585,12.7558993 143.591917,13.103277 144.987408,13.8316143 L139.301167,12.9004823 Z M71.2464424,22.4004068 L71.2464424,28.4436521 C71.2461729,29.0028705 70.7881482,29.4561401 70.2230631,29.4564068 L65.4120593,29.4564068 C64.8469742,29.4561401 64.3889495,29.0028705 64.38868,28.4436521 L64.38868,8.05859547 C64.3886565,7.79006193 64.4964945,7.53253175 64.6884435,7.34272419 C64.8803925,7.15291664 65.1407087,7.04639977 65.4120593,7.04663321 L76.4746455,7.04663321 C81.7709137,7.04663321 84.6232432,10.5405577 84.6232432,14.7405577 C84.6232432,18.9064823 81.7709137,22.4004068 76.4746455,22.4004068 L71.2464424,22.4004068 L71.2464424,22.4004068 Z M187.560147,14.2088219 C190.098577,12.3449728 193.970281,12.8806709 193.970281,12.8806709 L193.970281,12.8806709 C195.39425,12.9641551 196.67967,13.7526095 197.388753,14.9775011 C199.857515,12.2316521 204.427488,12.8830483 204.427488,12.8830483 L204.427488,12.8830483 C206.902657,13.1873502 208.508193,14.7136143 208.508193,17.6971992 L208.508193,28.4436521 C208.507924,29.0025614 208.050387,29.4557031 207.485615,29.4564068 L203.420124,29.4564068 C202.855352,29.4557031 202.397815,29.0025614 202.397546,28.4436521 L202.397546,19.9818408 C202.445691,19.4814766 202.263176,18.9863194 201.900788,18.6341523 C201.5384,18.2819852 201.034814,18.1103932 200.530159,18.1671238 C199.537357,18.1821599 198.608331,18.6541556 198.017354,19.4437653 L198.017354,28.4436521 C198.017085,29.0025614 197.559548,29.4557031 196.994776,29.4564068 L192.930086,29.4564068 C192.365001,29.4561401 191.906976,29.0028705 191.906707,28.4436521 L191.906707,19.9818408 C191.961013,19.4799889 191.780474,18.9811084 191.416576,18.6274743 C191.052678,18.2738401 190.545366,18.1042702 190.03932,18.1671238 C189.058041,18.1900596 188.142834,18.6614947 187.560948,19.4437653 L187.560948,28.4436521 C187.560679,29.0028705 187.102654,29.4561401 186.537569,29.4564068 L182.472879,29.4564068 C181.90811,29.4553862 181.450531,29.0025578 181.4495,28.4436521 L181.4495,14.2405358 C181.450211,13.6816269 181.908106,13.2288398 182.472879,13.2285736 L186.537569,13.2285736 C187.090183,13.2279727 187.543174,13.6622181 187.560147,14.2088377 L187.560147,14.2088377 L187.560147,14.2088219 Z M158.664496,29.4564068 C159.229265,29.4553862 159.686844,29.0025578 159.687875,28.4436521 L159.687875,14.2405358 C159.687164,13.6816269 159.229269,13.2288398 158.664496,13.2285736 L154.599806,13.2285736 C154.328459,13.2283507 154.068149,13.3348709 153.876202,13.5246762 C153.684256,13.7144815 153.576414,13.9720055 153.576427,14.2405358 L153.576427,28.4436679 C153.576719,29.0028773 154.03473,29.4561341 154.599806,29.4564226 L158.664496,29.4564226 L158.664496,29.4564226 L158.664496,29.4564068 Z M108.960933,29.4564068 C109.232365,29.4564551 109.492694,29.34977 109.684625,29.1598312 C109.876557,28.9698924 109.984361,28.7122661 109.984312,28.4436521 L109.984312,19.5111238 C110.663362,18.7044068 112.326554,18.3691992 113.616588,18.3691992 C113.726293,18.3691992 113.833596,18.3715766 113.937695,18.3755389 C114.216419,18.3885222 114.488368,18.288052 114.690307,18.0974906 C114.892246,17.9069292 115.006578,17.6428816 115.006718,17.3667464 C115.009121,16.3436898 115.009121,14.8689351 115.009121,13.8648974 C115.009351,13.5669601 114.876965,13.2840466 114.647219,13.0915005 C114.417474,12.8989544 114.113694,12.8163238 113.81678,12.8656143 C112.353557,13.1902907 111.020107,13.9361195 109.984312,15.0091992 L109.984312,14.24052 C109.983601,13.681611 109.525706,13.2288239 108.960933,13.2285577 L104.896243,13.2285577 C104.624895,13.2283306 104.364582,13.3348495 104.172634,13.5246557 C103.980687,13.7144619 103.872847,13.9719884 103.872864,14.24052 L103.872864,28.4436521 C103.873147,29.0028651 104.331164,29.456127 104.896243,29.4564068 L108.960933,29.4564068 L108.960933,29.4564068 L108.960933,29.4564068 Z M75.592201,12.9599162 L71.2464424,12.9599162 L71.2464424,16.4871238 L75.592201,16.4871238 C76.746906,16.4871238 77.6629826,15.9157653 77.6629826,14.7405577 C77.6629826,13.5304823 76.746906,12.9599162 75.592201,12.9599162 L75.592201,12.9599162 L75.592201,12.9599162 Z M156.632151,12.0525577 C158.019239,12.052718 159.269828,11.2259333 159.800718,9.95776636 C160.331608,8.68959938 160.038239,7.22982136 159.05742,6.25918491 C158.076601,5.28854845 156.601508,4.99822484 155.320037,5.52360353 C154.038566,6.04898223 153.203108,7.28658749 153.20327,8.65927472 C153.200788,9.55998011 153.561247,10.4245028 154.204826,11.0614001 C154.848404,11.6982974 155.721997,12.0550141 156.632151,12.0525577 L156.632151,12.0525577 L156.632151,12.0525577 Z M66.5731704,41.0967464 C67.6545335,41.145403 68.6754751,40.6021979 69.2308509,39.6826933 C69.7862266,38.7631887 69.7862266,37.6160777 69.2308509,36.6965732 C68.6754751,35.7770686 67.6545335,35.2338634 66.5731704,35.28252 L64.38868,35.28252 L64.38868,41.0967464 L66.5731704,41.0967464 L66.5731704,41.0967464 Z M66.5731704,40.1988974 L65.4192662,40.1988974 L65.4192662,36.1803691 L66.5731704,36.1803691 C67.1210157,36.1466125 67.6569204,36.3485272 68.0433644,36.7342993 C68.4298085,37.1200714 68.6291738,37.6521481 68.5903007,38.1939917 C68.618156,38.7321704 68.4149061,39.2569379 68.0306997,39.6388158 C67.6464933,40.0206938 67.1171112,40.2241183 66.5731704,40.1988974 L66.5731704,40.1988974 L66.5731704,40.1988974 Z M76.9406915,41.0967464 L72.9152393,41.0967464 L72.9152393,35.28252 L76.9406915,35.28252 L76.9406915,36.1803691 L73.9458256,36.1803691 L73.9458256,37.6884068 L76.8790325,37.6884068 L76.8790325,38.5862558 L73.9458256,38.5862558 L73.9458256,40.1988974 L76.9406915,40.1988974 L76.9406915,41.0967464 L76.9406915,41.0967464 L76.9406915,41.0967464 Z M82.2785995,41.2013502 C81.3863839,41.242989 80.5184026,40.9070081 79.8915152,40.2773502 L80.4640631,39.4928219 C80.9438322,40.0044368 81.617341,40.2950507 82.3226416,40.2947842 C83.1682508,40.2947842 83.5029711,39.885086 83.5029711,39.5015389 C83.5029711,38.2811615 80.0764922,39.0395389 80.0764922,36.8951615 C80.0764922,35.9362936 80.9309098,35.1953502 82.2169405,35.1953502 C83.0307917,35.1644957 83.8234397,35.4562995 84.4190478,36.0060294 L83.828883,36.7644068 C83.3733325,36.3293238 82.7618612,36.091037 82.1288562,36.1019162 C81.8984495,36.0562808 81.6592733,36.1087111 81.469894,36.2463685 C81.2805147,36.384026 81.1584189,36.5941999 81.1335037,36.8254257 C81.1335037,37.9063313 84.5511742,37.2351238 84.5511742,39.4056521 C84.5511742,40.373237 83.8641167,41.2013502 82.2785995,41.2013502 L82.2785995,41.2013502 Z M88.8056455,41.0967464 L87.7750593,41.0967464 L87.7750593,35.28252 L88.8056455,35.28252 L88.8056455,41.0967464 L88.8056455,41.0967464 Z M95.1477144,41.2100672 C94.0511806,41.2239275 93.0318948,40.6529481 92.4795449,39.7154229 C91.927195,38.7778976 91.927195,37.6188028 92.4795449,36.6812775 C93.0318948,35.7437522 94.0511806,35.1727729 95.1477144,35.1866332 C96.0953078,35.1613888 96.9897858,35.6187927 97.5171819,36.3982936 L96.6715727,36.8690106 C96.3202282,36.3818162 95.7525346,36.0927978 95.1477144,36.0931992 C94.0131729,36.1479791 93.1217367,37.0742518 93.1217367,38.1983502 C93.1217367,39.3224486 94.0131729,40.2487213 95.1477144,40.3035011 C95.6596906,40.2983746 96.1530831,40.1129555 96.5394462,39.7804823 L96.5394462,38.8739162 L94.7865689,38.8739162 L94.7865689,37.9760672 L97.5700325,37.9760672 L97.5700325,40.1553125 C96.9552476,40.8377374 96.0714715,41.2225617 95.1477144,41.2100672 L95.1477144,41.2100672 L95.1477144,41.2100672 Z M106.008508,41.0967464 L105.013155,41.0967464 L101.947822,36.9474634 L101.947822,41.0967464 L100.917236,41.0967464 L100.917236,35.28252 L101.974247,35.28252 L104.977921,39.3184823 L104.977921,35.28252 L106.008508,35.28252 L106.008508,41.0967464 L106.008508,41.0967464 Z M116.076542,41.2013502 C115.184329,41.2429758 114.316353,40.9069969 113.689458,40.2773502 L114.262006,39.4928219 C114.741774,40.0044377 115.415283,40.2950516 116.120584,40.2947842 C116.966193,40.2947842 117.300914,39.885086 117.300914,39.5015389 C117.300914,38.2811615 113.874435,39.0395389 113.874435,36.8951615 C113.874435,35.9362936 114.728852,35.1953502 116.014883,35.1953502 C116.828734,35.1645001 117.62138,35.4563033 118.21699,36.0060294 L117.626826,36.7644068 C117.171274,36.3293253 116.559803,36.0910387 115.926799,36.1019162 C115.696392,36.0562808 115.457216,36.1087111 115.267837,36.2463685 C115.078457,36.384026 114.956361,36.5941999 114.931446,36.8254257 C114.931446,37.9063313 118.349117,37.2351238 118.349117,39.4056521 C118.349117,40.373237 117.662059,41.2013502 116.076542,41.2013502 L116.076542,41.2013502 L116.076542,41.2013502 Z M124.268381,41.0967464 L123.237795,41.0967464 L123.237795,38.6821426 L120.956412,35.28252 L122.136741,35.28252 L123.757492,37.7755766 L125.360626,35.28252 L126.540956,35.28252 L124.268381,38.6821426 L124.268381,41.0967464 L124.268381,41.0967464 Z M131.464868,41.2013502 C130.572653,41.2429839 129.704674,40.9070038 129.077783,40.2773502 L129.650331,39.4928219 C130.130104,40.004432 130.80361,40.2950449 131.50891,40.2947842 C132.354519,40.2947842 132.689239,39.885086 132.689239,39.5015389 C132.689239,38.2811615 129.26276,39.0395389 129.26276,36.8951615 C129.26276,35.9362936 130.117178,35.1953502 131.403209,35.1953502 C132.217061,35.1644912 133.00971,35.4562957 133.605316,36.0060294 L133.015151,36.7644068 C132.559601,36.3293238 131.948129,36.091037 131.315124,36.1019162 C131.084718,36.0562808 130.845542,36.1087111 130.656162,36.2463685 C130.466783,36.384026 130.344687,36.5941999 130.319772,36.8254257 C130.319772,37.9063313 133.737442,37.2351238 133.737442,39.4056521 C133.737442,40.373237 133.050385,41.2013502 131.464868,41.2013502 L131.464868,41.2013502 L131.464868,41.2013502 Z M139.392454,41.0967464 L138.361868,41.0967464 L138.361868,36.1803691 L136.582565,36.1803691 L136.582565,35.28252 L141.171757,35.28252 L141.171757,36.1803691 L139.392454,36.1803691 L139.392454,41.0967464 L139.392454,41.0967464 L139.392454,41.0967464 Z M148.341818,41.0967464 L144.316366,41.0967464 L144.316366,35.28252 L148.341818,35.28252 L148.341818,36.1803691 L145.346952,36.1803691 L145.346952,37.6884068 L148.280159,37.6884068 L148.280159,38.5862558 L145.346952,38.5862558 L145.346952,40.1988974 L148.341818,40.1988974 L148.341818,41.0967464 L148.341818,41.0967464 L148.341818,41.0967464 Z M157.775645,41.0967464 L156.745059,41.0967464 L156.745059,36.7818408 L154.939331,41.0967464 L154.49891,41.0967464 L152.70199,36.7818408 L152.70199,41.0967464 L151.671404,41.0967464 L151.671404,35.28252 L153.124795,35.28252 L154.719121,39.1092747 L156.322255,35.28252 L157.775645,35.28252 L157.775645,41.0967464 L157.775645,41.0967464 Z"/>
    <path fill="#C1E9FF" d="M16.9648343,1.16074528 C17.715617,0.417545448 18.7340252,2.32809505e-06 19.7959435,2.32809505e-06 C20.8578618,2.32809505e-06 21.87627,0.417545448 22.6270527,1.16074528 C26.7357845,5.22761321 34.309432,12.7218396 38.4189646,16.7887075 C39.9820797,18.336243 39.9820797,20.8446061 38.4189646,22.3921415 L22.6270527,38.0201038 C21.87627,38.7633036 20.8578618,39.1808467 19.7959435,39.1808467 C18.7340252,39.1808467 17.715617,38.7633036 16.9648343,38.0201038 C12.8553017,33.9540283 5.28165421,26.4590094 1.17292241,22.3921415 C0.421925828,21.6491534 2.35251859e-06,20.6413181 2.35251859e-06,19.5904245 C2.35251859e-06,18.5395309 0.421925828,17.5316957 1.17292241,16.7887075 C5.28165421,12.7218396 12.8553017,5.22761321 16.9648343,1.16074528 L16.9648343,1.16074528 L16.9648343,1.16074528 Z"/>
    <path fill="#001EDC" d="M33.470277,4.37449019 C34.4074684,3.44428081 34.4063432,1.93868303 33.4677625,1.00984652 C32.5291817,0.0810100032 31.007789,0.0798965023 30.067821,1.00735811 L12.6583613,18.2360751 C11.718799,19.1658829 11.718799,20.6733993 12.6583613,21.6032071 C13.5979235,22.533015 15.1212549,22.533015 16.0608172,21.6032072 L33.470277,4.37449019 L33.470277,4.37449019 L33.470277,4.37449019 Z"/>
    <path fill="#7ACDFF" d="M50.8677413,21.615086 C51.4803332,21.0104799 51.7200802,20.1281809 51.4965306,19.3010632 C51.2729809,18.4739454 50.6201606,17.8279026 49.7843657,17.6066738 C48.9485708,17.385445 48.0570159,17.622703 47.4460669,18.2289351 L30.0582279,35.4362558 C29.4470046,36.0411335 29.2082947,36.9227618 29.432018,37.74904 C29.6557412,38.5753182 30.3079086,39.2207149 31.1428551,39.4421155 C31.9778016,39.663516 32.8686789,39.4272844 33.4799022,38.8224068 L50.8677413,21.615086 L50.8677413,21.615086 L50.8677413,21.615086 Z"/>
    <path fill="#005EFF" d="M39.2229739,10.0801426 C40.1660742,9.14683352 40.1660742,7.63364045 39.2229739,6.70033132 C38.2798737,5.7670222 36.750806,5.7670222 35.8077057,6.70033132 L18.4110582,23.9155766 C17.469797,24.8494536 17.4707748,26.3613342 18.4132433,27.294018 C19.3557117,28.2267019 20.8834531,28.2276695 21.8271272,27.2961804 L39.2229739,10.0801426 L39.2229739,10.0801426 Z"/>
    <path fill="#299CFF" d="M45.0333501,15.8388974 C45.9763844,14.9025019 45.9750939,13.3872519 45.0304659,12.4524309 C44.0858379,11.5176099 42.5546917,11.5163327 41.6084727,12.4495766 L24.2206336,29.6561049 C23.608133,30.2615507 23.3687417,31.1444807 23.5927089,31.9720356 C23.816676,32.7995906 24.469943,33.4459243 25.306232,33.6673728 C26.142521,33.8888213 27.0346577,33.6517089 27.6463118,33.0454257 L45.0333501,15.8388974 L45.0333501,15.8388974 L45.0333501,15.8388974 Z"/>
  </g>
</svg>
